<svg width="232" height="233" viewBox="0 0 232 233" fill="none" xmlns="http://www.w3.org/2000/svg">
<g filter="url(#filter0_d_18_8)">
<path d="M28.3498 40.2643C45.5728 33.5377 60.6255 29.9469 73.5081 29.4917C89.9042 28.9125 101.168 32.8103 107.299 41.1851C110.085 45.1221 111.659 49.4273 112.022 54.1007C112.527 60.5915 110.965 67.3506 107.335 74.378C103.836 81.4008 98.9206 87.8228 92.588 93.6439C77.8418 107.052 59.3338 115.712 37.064 119.622C37.175 121.05 37.3516 123.322 37.5939 126.438C37.9763 129.679 38.3189 133.246 38.6217 137.141C39.0546 141.031 39.4426 145.182 39.7858 149.596C40.259 154.005 40.7172 158.22 41.1602 162.24C42.3277 172.222 43.032 177.924 43.2732 179.348C43.6444 180.767 43.8654 181.93 43.9361 182.839C44.1884 186.084 43.3341 188.523 41.3731 190.154C39.4223 191.915 36.7552 192.856 33.3719 192.975C32.7213 192.998 32.0707 193.021 31.42 193.044L16.1253 36.5957C17.1652 34.8667 18.6662 34.0327 20.6282 34.0935C22.5902 34.1544 24.1921 34.6185 25.4339 35.4858C26.6757 36.3532 27.6477 37.946 28.3498 40.2643ZM85.8754 45.0661C81.4096 43.011 76.7043 42.0707 71.7595 42.2454C66.9448 42.4155 62.1654 43.0399 57.4213 44.1188C46.6521 46.582 38.9426 51.4755 34.2926 58.7993C32.2127 62.2573 31.3645 66.4528 31.748 71.3858C31.7884 71.9051 31.8288 72.4243 31.8691 72.9436L34.4882 106.631C60.8301 99.7124 79.1827 90.733 89.5461 79.6927C95.5781 73.3614 98.3418 66.9504 97.8371 60.4596C97.3022 53.5793 93.315 48.4482 85.8754 45.0661ZM221.697 180.855L216.442 181.236L211.953 181.394L202.41 96.403C197.708 101.385 190.343 105.681 180.316 109.29C171.179 112.606 162.901 114.396 155.484 114.658C149.498 114.869 144.423 114.202 140.258 112.657C136.223 111.108 133.154 109.394 131.05 107.515C129.067 105.503 127.925 103.395 127.623 101.193C127.451 98.986 127.315 97.2335 127.214 95.9353C126.629 88.406 127.88 81.007 130.969 73.7383C134.057 66.4697 138.763 59.8599 145.085 53.9089C151.408 47.9579 158.487 43.347 166.323 40.0762C174.289 36.8008 182.11 35.0275 189.788 34.7563L192.52 34.6598C196.294 34.5264 199.848 35.7677 203.183 38.3835C206.518 40.9993 209.358 43.9581 211.703 47.2597C213.459 69.8478 215.255 92.1091 217.09 114.043C218.926 135.978 221.438 158.214 224.625 180.751L221.697 180.855ZM195.417 56.817C194.943 50.7156 193.405 47.7109 190.802 47.8029C177.659 48.2672 166.115 52.5151 156.171 60.5466C145.636 69.3801 140.858 80.0929 141.837 92.6851C142.321 98.9163 146.087 102.038 153.134 102.049C155.086 101.98 157.623 101.89 160.746 101.78C163.999 101.665 167.873 101.138 172.367 100.198C176.851 99.1283 180.829 97.4257 184.301 95.0901C192.516 89.9835 196.245 82.5621 195.488 72.8258L195.417 56.817Z" fill="white"/>
<path d="M78.4552 158.044C74.5514 158.182 72.5208 157.239 72.3633 155.214C72.2846 154.201 72.6595 153.485 73.4881 153.065C74.3947 152.643 75.929 152.237 78.0909 151.848C80.3309 151.457 83.1053 150.89 86.4142 150.148C89.8011 149.404 93.3532 148.77 97.0706 148.249C98.6321 148.193 99.9806 148.419 101.116 148.926C102.738 149.65 103.592 150.557 103.676 151.647C103.707 152.037 103.551 152.55 103.209 153.187C102.945 153.821 102.129 154.396 100.76 154.913L78.4552 158.044ZM121.674 176.2C118.058 175 115.997 173.667 115.491 172.201C115.467 171.889 115.446 171.616 115.428 171.383C115.24 168.968 117.791 166.027 123.08 162.56C130.908 157.519 135.999 154.02 138.352 152.062C140.699 150.027 142.037 148.105 142.367 146.297L110.549 135.823L115.96 129.891C119.998 132.482 123.659 134.266 126.945 135.243C130.309 136.218 133.502 137.003 136.523 137.6C139.617 138.115 142.683 138.788 145.723 139.618C148.756 140.37 151.967 141.896 155.356 144.198C153.514 146.684 151.128 149.229 148.199 151.832C145.342 154.354 142.295 156.961 139.06 159.652C135.902 162.341 132.748 165.069 129.597 167.836C126.523 170.6 123.882 173.388 121.674 176.2Z" fill="#BFDB38"/>
</g>
<defs>
<filter id="filter0_d_18_8" x="11.7317" y="24.582" width="217.318" height="176.573" filterUnits="userSpaceOnUse" color-interpolation-filters="sRGB">
<feFlood flood-opacity="0" result="BackgroundImageFix"/>
<feColorMatrix in="SourceAlpha" type="matrix" values="0 0 0 0 0 0 0 0 0 0 0 0 0 0 0 0 0 0 127 0" result="hardAlpha"/>
<feOffset dy="4"/>
<feGaussianBlur stdDeviation="2"/>
<feComposite in2="hardAlpha" operator="out"/>
<feColorMatrix type="matrix" values="0 0 0 0 0 0 0 0 0 0 0 0 0 0 0 0 0 0 0.25 0"/>
<feBlend mode="normal" in2="BackgroundImageFix" result="effect1_dropShadow_18_8"/>
<feBlend mode="normal" in="SourceGraphic" in2="effect1_dropShadow_18_8" result="shape"/>
</filter>
</defs>
</svg>
