<svg width="420" height="418" viewBox="0 0 420 418" fill="none" xmlns="http://www.w3.org/2000/svg">
<path d="M206.406 54.5018C205.9 52.4751 205.513 50.4351 205.246 48.3818C204.98 46.3018 204.74 42.8884 204.526 38.1418C204.526 37.8218 204.633 37.5418 204.846 37.3018C205.086 37.0618 205.353 36.9418 205.646 36.9418H206.006C206.14 37.8218 206.233 39.2351 206.286 41.1818C206.286 41.3951 206.313 42.1151 206.366 43.3418C206.42 44.5418 206.553 45.6751 206.766 46.7418C209.86 46.4484 212.326 45.8484 214.166 44.9418C216.033 44.0351 216.966 42.7418 216.966 41.0618C216.966 38.9551 216.033 37.2351 214.166 35.9018C212.3 34.5684 209.486 33.9018 205.726 33.9018C204.153 33.9018 202.82 34.1951 201.726 34.7818C201.54 34.8618 201.406 35.0351 201.326 35.3018C201.246 35.5418 201.18 35.8884 201.126 36.3418C201.073 36.8218 201.006 37.1818 200.926 37.4218C200.846 37.6618 200.7 37.7818 200.486 37.7818C200.246 37.7818 200.086 37.6084 200.006 37.2618C199.953 36.8884 199.926 36.0484 199.926 34.7418C199.926 33.9951 200.433 33.4084 201.446 32.9818C202.46 32.5551 203.766 32.3418 205.366 32.3418C210.033 32.3418 213.5 33.0751 215.766 34.5418C218.033 36.0084 219.166 38.2618 219.166 41.3018C219.166 42.9284 218.513 44.2884 217.206 45.3818C215.9 46.4751 214.313 47.2884 212.446 47.8218C210.58 48.3284 208.793 48.5818 207.086 48.5818C207.14 48.9018 207.193 49.1951 207.246 49.4618C207.3 49.7284 207.34 49.9551 207.366 50.1418C207.74 51.9551 207.926 53.3551 207.926 54.3418C207.926 54.9284 207.846 55.3951 207.686 55.7418C207.553 56.0884 207.246 56.2084 206.766 56.1018L206.406 54.5018Z" fill="black"/>
<path d="M254.5 66.167C253.999 66.4696 253.501 66.5682 253.006 66.4628C252.275 66.3076 251.505 65.7622 250.695 64.8267C249.886 63.8912 248.673 62.2841 247.058 60.0052C246.76 59.9964 246.342 59.9756 245.804 59.943C245.292 59.9159 244.766 59.886 244.228 59.8534L242.37 59.7447C242.156 59.7265 241.84 59.673 241.423 59.5843C239.44 59.1629 237.73 58.295 236.292 56.9806C234.859 55.6401 233.835 54.0457 233.219 52.1973C232.603 50.3488 232.495 48.4856 232.894 46.6075C233.277 44.8078 233.976 43.2524 234.99 41.9414C236.005 40.6304 237.185 39.6953 238.531 39.1362C239.908 38.5565 241.288 38.4136 242.671 38.7075C245.331 39.273 247.71 40.4601 249.806 42.2689C251.908 44.0515 253.463 46.0995 254.471 48.4129C255.484 50.7002 255.78 52.8351 255.358 54.8175C255.12 55.9391 254.455 56.8882 253.363 57.6648C252.297 58.4469 250.963 59.0768 249.362 59.5544C250.217 60.663 251.159 61.7491 252.187 62.8128C252.952 63.5751 253.514 64.1991 253.874 64.6846C254.235 65.1701 254.443 65.6642 254.5 66.167ZM241.689 56.9829C242.289 57.1104 242.856 57.2035 243.388 57.2622C243.921 57.3209 244.567 57.3627 245.325 57.3875C244.464 55.9232 243.832 54.7257 243.43 53.7951C243.06 52.844 242.933 52.0946 243.049 51.5468C243.144 51.1034 243.414 50.7928 243.861 50.6152C244.304 50.7094 244.713 51.0961 245.086 51.7753C245.486 52.4601 245.955 53.4594 246.494 54.7735C246.945 55.9871 247.314 56.8153 247.601 57.2581C249.197 57.1884 250.527 56.8984 251.589 56.3882C252.678 55.8835 253.325 55.1486 253.53 54.1835C253.868 52.5924 253.662 50.8718 252.91 49.0218C252.158 47.1717 250.892 45.4985 249.11 44.0021C247.361 42.4852 245.221 41.4579 242.691 40.9201C240.813 40.5209 239.189 40.9119 237.821 42.0931C236.457 43.2483 235.546 44.9083 235.085 47.0733C234.654 48.59 234.67 50.0521 235.135 51.4593C235.63 52.8461 236.456 54.0302 237.61 55.0117C238.791 55.9987 240.15 56.6558 241.689 56.9829Z" fill="black"/>
<path d="M275.287 71.1449C272.851 70.0602 271.196 68.8272 270.322 67.4458C269.459 66.04 269.522 64.2286 270.509 62.0117C276.419 50.0481 279.785 44.585 280.608 45.6225C281.133 45.8855 281.032 46.8331 280.305 48.4653C279.861 49.4641 278.752 51.4954 276.979 54.5593C274.892 58.0669 273.463 60.6856 272.693 62.4153L272.258 63.4912C272.019 64.0272 271.939 64.6336 272.017 65.3106C272.12 65.9984 272.416 66.4805 272.906 66.757L279.791 70.567C280.048 70.7107 280.069 71.0262 279.852 71.5134C279.656 71.9519 279.411 72.2076 279.116 72.2805C278.845 72.3643 278.432 72.341 277.877 72.2106L275.287 71.1449Z" fill="black"/>
<path d="M299.016 85.2776C296.47 83.428 295.489 80.968 296.072 77.8974C296.676 74.8426 298.224 71.4187 300.716 67.6257C300.93 67.2865 301.256 66.8148 301.695 66.2107C302.588 64.981 303.429 64.1415 304.217 63.6921C305.042 63.2369 305.886 63.3228 306.749 63.9497C306.986 64.1221 307.123 64.3201 307.158 64.5436C307.209 64.7455 307.164 64.9435 307.023 65.1377C306.725 65.5476 306.187 65.7665 305.409 65.7943C305.128 65.5905 304.801 65.6328 304.427 65.9212C304.074 66.2253 303.623 66.7548 303.075 67.5099C302.573 68.2003 302.184 68.7583 301.908 69.1838C299.702 72.4924 298.446 75.4691 298.139 78.1141C297.848 80.7375 298.641 82.731 300.518 84.0947C301.597 84.8784 302.756 85.3248 303.995 85.434C305.234 85.5432 306.404 85.3388 307.506 84.8206C308.645 84.2966 309.583 83.5276 310.319 82.5137C311.389 80.5879 312.118 79.222 312.505 78.416C312.893 77.61 313.494 76.2834 314.309 74.4362C314.613 73.7008 314.937 73.0958 315.282 72.6212C315.642 72.125 315.99 71.8503 316.325 71.7972C316.661 71.7442 317.022 71.8587 317.411 72.1408C317.648 72.3132 317.729 72.5867 317.655 72.9612C317.581 73.3357 317.3 73.972 316.812 74.8702C316.324 75.7684 315.493 77.2078 314.317 79.1886C313.657 80.3241 313.11 81.5085 312.675 82.7419C312.262 83.991 311.836 85.4616 311.398 87.1538C311.347 87.3146 311.231 87.7244 311.049 88.3833C310.882 89.0205 310.725 89.5323 310.576 89.9186C310.427 90.3049 310.282 90.5952 310.141 90.7893C309.78 91.2855 309.341 91.3455 308.824 90.9694C308.651 90.844 308.978 89.0548 309.806 85.6018C308.864 86.4002 307.751 86.9105 306.469 87.1327C305.203 87.3332 303.913 87.2701 302.602 86.9433C301.29 86.6166 300.095 86.0613 299.016 85.2776Z" fill="black"/>
<path d="M325.839 110.041C322.431 106.256 319.998 103.135 318.541 100.68C327.987 91.2052 333.555 85.3132 335.243 83.0036L334.232 82.2992C333.705 81.9128 333.185 81.5551 332.674 81.2262C332.182 80.8795 331.614 80.5476 330.97 80.2306L331.954 79.2908C332.291 78.9875 332.928 79.0775 333.866 79.561C334.823 80.0266 335.845 80.7032 336.931 81.591C338.056 82.4807 338.983 83.3318 339.715 84.1443C340.518 85.0361 341.278 86.1994 341.996 87.6343C342.732 89.089 343.157 90.518 343.273 91.9213C343.408 93.3068 343.049 94.3832 342.197 95.1505C341.226 96.0248 340.025 96.4245 338.594 96.3495C337.2 96.2764 335.81 95.7881 334.422 94.8846C335.695 96.8962 336.623 99.003 337.206 101.205C337.809 103.389 337.957 105.446 337.648 107.374C337.359 109.285 336.57 110.82 335.282 111.98C333.796 113.318 332.198 113.716 330.49 113.173C328.781 112.631 327.231 111.587 325.839 110.041ZM326.837 107.742C328.158 109.209 329.333 110.196 330.364 110.703C331.415 111.192 332.485 110.946 333.575 109.965C334.725 108.93 335.373 107.718 335.522 106.328C335.708 104.941 335.599 103.585 335.197 102.261C334.832 100.939 334.281 99.3712 333.546 97.5577C332.941 96.1287 332.536 95.0218 332.332 94.2369C332.165 93.454 332.26 92.902 332.617 92.5808C332.875 92.3488 333.189 92.2992 333.559 92.4319C333.93 92.5646 334.539 92.842 335.385 93.264C336.485 93.8881 337.427 94.2962 338.21 94.4883C339.03 94.6824 339.758 94.4939 340.392 93.9229C341.323 93.0843 341.528 91.8771 341.007 90.3015C340.505 88.708 339.62 87.2077 338.354 85.8007C337.997 85.4043 337.529 84.9644 336.95 84.4809C334.085 87.9938 331.602 90.8754 329.501 93.1256C327.42 95.3579 324.92 97.8609 321.998 100.635C321.971 101.162 322.396 102.053 323.275 103.307C324.153 104.562 325.341 106.04 326.837 107.742Z" fill="black"/>
<path d="M346.146 121.863C346.816 121.477 347.684 121.807 348.75 122.854C349.83 123.924 351.136 125.572 352.667 127.798C352.837 128.039 353.055 128.39 353.322 128.852C353.855 129.776 354.169 130.533 354.265 131.125C354.36 131.717 354.281 132.086 354.026 132.232C353.565 132.499 353.207 132.413 352.954 131.974C352.754 131.628 352.598 131.225 352.487 130.766C352.305 130.132 352.055 129.537 351.735 128.983C351.228 128.105 350.297 126.919 348.94 125.423C348.262 124.675 347.71 124.04 347.285 123.515C346.859 122.991 346.48 122.441 346.146 121.863Z" fill="black"/>
<path d="M355.127 158.148C356.898 157.04 358.719 156.042 360.589 155.154C362.485 154.258 365.657 152.975 370.106 151.305C370.41 151.206 370.709 151.221 371.003 151.35C371.306 151.504 371.502 151.72 371.593 151.999L371.704 152.342C370.909 152.74 369.593 153.266 367.758 153.918C367.555 153.984 366.879 154.232 365.729 154.662C364.604 155.083 363.567 155.56 362.619 156.093C363.854 158.944 365.187 161.105 366.617 162.574C368.057 164.07 369.575 164.558 371.173 164.038C373.176 163.387 374.524 161.968 375.215 159.781C375.906 157.594 375.671 154.712 374.509 151.136C374.023 149.64 373.332 148.462 372.436 147.604C372.302 147.451 372.096 147.378 371.818 147.384C371.565 147.382 371.215 147.426 370.767 147.515C370.294 147.613 369.931 147.661 369.678 147.659C369.425 147.657 369.266 147.554 369.2 147.351C369.125 147.123 369.241 146.917 369.546 146.734C369.884 146.568 370.675 146.283 371.918 145.879C372.628 145.649 373.342 145.949 374.061 146.781C374.78 147.613 375.387 148.79 375.881 150.312C377.323 154.75 377.697 158.273 377.003 160.882C376.308 163.491 374.516 165.266 371.624 166.205C370.077 166.708 368.582 166.507 367.138 165.602C365.695 164.697 364.431 163.439 363.347 161.829C362.288 160.21 361.495 158.589 360.968 156.966C360.68 157.115 360.417 157.257 360.18 157.39C359.943 157.523 359.74 157.631 359.571 157.714C357.961 158.63 356.688 159.24 355.749 159.545C355.191 159.726 354.723 159.794 354.344 159.749C353.973 159.729 353.764 159.475 353.717 158.985L355.127 158.148Z" fill="black"/>
<path d="M358.989 207.427C358.547 207.045 358.299 206.601 358.246 206.097C358.168 205.355 358.449 204.454 359.089 203.395C359.728 202.335 360.882 200.686 362.55 198.446C362.466 198.159 362.357 197.755 362.222 197.233C362.089 196.738 361.955 196.229 361.82 195.707L361.349 193.906C361.3 193.697 361.254 193.38 361.209 192.956C360.997 190.94 361.294 189.045 362.1 187.272C362.932 185.495 364.132 184.028 365.699 182.871C367.267 181.714 369.006 181.035 370.915 180.835C372.745 180.642 374.44 180.826 376.001 181.386C377.561 181.946 378.815 182.78 379.763 183.887C380.74 185.017 381.302 186.286 381.45 187.691C381.734 190.396 381.34 193.025 380.267 195.578C379.222 198.128 377.754 200.24 375.866 201.913C374.003 203.583 372.064 204.524 370.049 204.736C368.908 204.856 367.8 204.517 366.724 203.718C365.651 202.946 364.64 201.873 363.691 200.498C362.901 201.653 362.159 202.884 361.465 204.191C360.976 205.154 360.556 205.881 360.206 206.374C359.856 206.867 359.45 207.218 358.989 207.427ZM363.765 192.406C363.83 193.015 363.916 193.583 364.025 194.108C364.134 194.633 364.293 195.259 364.504 195.988C365.631 194.717 366.574 193.746 367.335 193.076C368.125 192.43 368.799 192.078 369.356 192.019C369.807 191.972 370.185 192.133 370.492 192.503C370.54 192.954 370.298 193.462 369.768 194.027C369.24 194.619 368.435 195.374 367.351 196.292C366.336 197.096 365.663 197.703 365.331 198.113C365.89 199.61 366.577 200.784 367.39 201.637C368.207 202.517 369.106 202.905 370.087 202.802C371.705 202.632 373.277 201.903 374.804 200.617C376.331 199.33 377.531 197.608 378.404 195.452C379.306 193.319 379.622 190.967 379.352 188.394C379.151 186.485 378.277 185.062 376.731 184.125C375.211 183.185 373.351 182.831 371.149 183.063C369.573 183.121 368.188 183.588 366.993 184.465C365.827 185.365 364.956 186.515 364.38 187.917C363.806 189.345 363.601 190.841 363.765 192.406Z" fill="black"/>
<path d="M360.679 228.735C360.958 226.083 361.619 224.128 362.663 222.87C363.733 221.615 365.475 221.115 367.888 221.368C381.093 223.292 387.329 224.806 386.596 225.909C386.508 226.489 385.576 226.686 383.799 226.499C382.712 226.385 380.437 225.958 376.976 225.219C372.995 224.318 370.063 223.769 368.18 223.571L367.022 223.489C366.438 223.428 365.837 223.539 365.217 223.822C364.595 224.132 364.228 224.563 364.116 225.114L362.62 232.84C362.563 233.129 362.269 233.246 361.739 233.19C361.262 233.14 360.943 232.986 360.782 232.728C360.619 232.496 360.513 232.096 360.466 231.528L360.679 228.735Z" fill="black"/>
<path d="M354.57 255.67C355.543 252.677 357.579 250.984 360.68 250.589C363.772 250.22 367.506 250.634 371.884 251.832C372.272 251.93 372.822 252.095 373.532 252.326C374.978 252.795 376.036 253.335 376.707 253.946C377.395 254.59 377.574 255.419 377.244 256.434C377.153 256.713 377.007 256.904 376.806 257.006C376.629 257.117 376.427 257.136 376.199 257.062C375.717 256.905 375.343 256.461 375.076 255.729C375.183 255.4 375.041 255.101 374.651 254.834C374.253 254.593 373.61 254.328 372.723 254.039C371.911 253.776 371.26 253.578 370.77 253.447C366.942 252.371 363.723 252.096 361.112 252.622C358.528 253.156 356.877 254.527 356.16 256.733C355.748 258.001 355.681 259.241 355.96 260.453C356.239 261.666 356.795 262.716 357.629 263.603C358.479 264.524 359.5 265.179 360.692 265.566C362.854 265.988 364.378 266.259 365.265 266.379C366.151 266.498 367.599 266.66 369.607 266.864C370.4 266.926 371.076 267.047 371.634 267.228C372.217 267.418 372.586 267.664 372.74 267.966C372.894 268.269 372.897 268.648 372.749 269.105C372.658 269.384 372.423 269.546 372.044 269.591C371.665 269.636 370.973 269.565 369.968 269.379C368.963 269.193 367.337 268.846 365.09 268.341C363.806 268.064 362.51 267.909 361.203 267.877C359.887 267.87 358.357 267.92 356.612 268.026C356.444 268.027 356.018 268.043 355.335 268.073C354.678 268.112 354.142 268.12 353.729 268.098C353.315 268.076 352.995 268.028 352.766 267.954C352.183 267.764 351.99 267.365 352.188 266.756C352.254 266.553 354.057 266.312 357.596 266.032C356.546 265.382 355.717 264.482 355.109 263.331C354.527 262.189 354.189 260.943 354.094 259.595C354 258.246 354.158 256.938 354.57 255.67Z" fill="black"/>
<path d="M339.308 288.832C341.855 284.421 344.07 281.143 345.955 278.999C357.886 285.055 365.21 288.529 367.928 289.421L368.285 288.242C368.49 287.621 368.67 287.017 368.824 286.428C369.002 285.854 369.142 285.211 369.245 284.5L370.443 285.146C370.835 285.372 370.946 286.006 370.776 287.047C370.63 288.102 370.302 289.283 369.793 290.59C369.294 291.934 368.772 293.08 368.225 294.027C367.625 295.066 366.754 296.149 365.611 297.275C364.455 298.424 363.227 299.27 361.928 299.813C360.652 300.37 359.518 300.362 358.524 299.788C357.393 299.135 356.642 298.116 356.271 296.732C355.91 295.384 355.944 293.911 356.375 292.312C354.855 294.144 353.138 295.678 351.224 296.913C349.333 298.161 347.423 298.937 345.493 299.239C343.587 299.555 341.883 299.279 340.382 298.413C338.65 297.413 337.778 296.016 337.766 294.223C337.754 292.431 338.268 290.634 339.308 288.832ZM341.803 289.072C340.816 290.781 340.241 292.204 340.077 293.341C339.936 294.491 340.501 295.433 341.771 296.166C343.11 296.94 344.464 297.182 345.831 296.894C347.208 296.642 348.464 296.12 349.599 295.328C350.743 294.572 352.064 293.564 353.562 292.304C354.734 291.287 355.661 290.561 356.345 290.124C357.038 289.723 357.592 289.643 358.008 289.883C358.308 290.056 358.452 290.34 358.441 290.733C358.429 291.127 358.353 291.791 358.214 292.727C357.96 293.966 357.863 294.988 357.922 295.792C357.991 296.632 358.395 297.266 359.134 297.692C360.22 298.319 361.431 298.141 362.768 297.158C364.129 296.188 365.282 294.883 366.229 293.244C366.496 292.782 366.769 292.201 367.05 291.501C362.824 289.861 359.316 288.391 356.527 287.088C353.761 285.799 350.608 284.194 347.067 282.273C346.557 282.41 345.841 283.09 344.92 284.313C343.998 285.536 342.959 287.122 341.803 289.072Z" fill="black"/>
<path d="M334.339 311.799C334.914 312.316 334.868 313.244 334.202 314.582C333.518 315.939 332.354 317.69 330.71 319.835C330.534 320.071 330.267 320.387 329.91 320.783C329.196 321.576 328.573 322.109 328.04 322.382C327.506 322.656 327.131 322.694 326.913 322.498C326.517 322.141 326.488 321.774 326.827 321.398C327.095 321.1 327.43 320.828 327.832 320.58C328.379 320.212 328.867 319.79 329.295 319.314C329.973 318.561 330.814 317.309 331.817 315.557C332.319 314.681 332.753 313.959 333.12 313.392C333.487 312.826 333.893 312.294 334.339 311.799Z" fill="black"/>
<path d="M302.605 331.553C304.207 332.895 305.719 334.318 307.141 335.823C308.58 337.349 310.78 339.969 313.743 343.684C313.931 343.943 314.009 344.232 313.977 344.551C313.924 344.887 313.779 345.14 313.542 345.313L313.251 345.524C312.625 344.891 311.719 343.802 310.532 342.259C310.406 342.086 309.962 341.519 309.198 340.558C308.449 339.619 307.675 338.78 306.875 338.043C304.545 340.098 302.902 342.034 301.947 343.849C300.97 345.679 300.975 347.274 301.962 348.633C303.2 350.338 304.966 351.181 307.26 351.162C309.554 351.144 312.222 350.029 315.264 347.819C316.537 346.895 317.443 345.874 317.983 344.756C318.087 344.582 318.093 344.363 318.001 344.1C317.924 343.859 317.775 343.54 317.551 343.141C317.312 342.722 317.155 342.391 317.078 342.15C317.002 341.909 317.05 341.726 317.223 341.6C317.417 341.459 317.648 341.505 317.917 341.739C318.179 342.01 318.695 342.673 319.463 343.731C319.901 344.335 319.836 345.107 319.267 346.048C318.698 346.989 317.767 347.929 316.472 348.87C312.697 351.613 309.461 353.057 306.765 353.203C304.069 353.349 301.828 352.192 300.041 349.732C299.085 348.416 298.814 346.932 299.229 345.28C299.643 343.627 300.449 342.036 301.645 340.508C302.858 339.001 304.154 337.745 305.535 336.742C305.304 336.515 305.088 336.309 304.888 336.124C304.688 335.94 304.523 335.78 304.392 335.645C303.024 334.397 302.05 333.374 301.47 332.576C301.125 332.102 300.915 331.677 300.841 331.302C300.745 330.944 300.923 330.666 301.374 330.47L302.605 331.553Z" fill="black"/>
<path d="M256.932 350.454C257.159 349.915 257.504 349.543 257.967 349.337C258.649 349.033 259.593 349.022 260.798 349.302C262.003 349.583 263.928 350.171 266.574 351.065C266.821 350.897 267.171 350.668 267.626 350.378C268.056 350.099 268.499 349.815 268.953 349.524L270.52 348.52C270.704 348.409 270.991 348.267 271.381 348.093C273.233 347.269 275.126 346.966 277.062 347.184C279.009 347.426 280.775 348.114 282.36 349.248C283.944 350.381 285.127 351.825 285.908 353.579C286.657 355.26 287.006 356.929 286.955 358.586C286.905 360.243 286.5 361.693 285.74 362.936C284.966 364.215 283.934 365.142 282.643 365.716C280.158 366.823 277.536 367.26 274.777 367.029C272.028 366.823 269.567 366.08 267.392 364.8C265.227 363.545 263.733 361.992 262.909 360.141C262.442 359.093 262.423 357.934 262.85 356.664C263.252 355.405 263.961 354.112 264.975 352.784C263.632 352.39 262.232 352.065 260.775 351.808C259.708 351.641 258.886 351.467 258.31 351.286C257.733 351.105 257.274 350.828 256.932 350.454ZM272.694 350.355C272.134 350.604 271.621 350.862 271.156 351.127C270.69 351.393 270.143 351.739 269.516 352.164C271.073 352.843 272.288 353.44 273.16 353.957C274.018 354.509 274.562 355.04 274.789 355.552C274.974 355.966 274.938 356.376 274.681 356.783C274.266 356.967 273.709 356.894 273.007 356.564C272.281 356.245 271.314 355.713 270.106 354.966C269.028 354.249 268.243 353.796 267.75 353.607C266.5 354.601 265.595 355.617 265.035 356.655C264.451 357.703 264.359 358.678 264.76 359.579C265.422 361.065 266.601 362.336 268.296 363.39C269.992 364.445 272 365.055 274.321 365.218C276.628 365.417 278.963 364.99 281.326 363.938C283.08 363.157 284.163 361.887 284.576 360.127C285 358.391 284.762 356.512 283.862 354.49C283.319 353.009 282.447 351.836 281.244 350.97C280.028 350.14 278.664 349.667 277.153 349.552C275.618 349.447 274.132 349.715 272.694 350.355Z" fill="black"/>
<path d="M237.189 358.645C239.798 358.091 241.861 358.116 243.38 358.72C244.904 359.35 245.919 360.852 246.423 363.226C248.674 376.379 249.161 382.777 247.886 382.421C247.307 382.517 246.831 381.691 246.46 379.943C246.233 378.874 245.936 376.579 245.569 373.058C245.196 368.994 244.812 366.035 244.419 364.183L244.138 363.057C244.016 362.483 243.725 361.945 243.264 361.444C242.777 360.947 242.254 360.731 241.695 360.796L233.885 361.761C233.592 361.795 233.391 361.552 233.28 361.03C233.18 360.561 233.228 360.21 233.424 359.977C233.594 359.75 233.941 359.527 234.467 359.306L237.189 358.645Z" fill="black"/>
<path d="M209.694 361.062C212.841 361.062 215.081 362.475 216.414 365.302C217.721 368.128 218.481 371.808 218.694 376.342C218.721 376.742 218.734 377.315 218.734 378.062C218.734 379.582 218.548 380.755 218.174 381.582C217.774 382.435 217.041 382.862 215.974 382.862C215.681 382.862 215.454 382.782 215.294 382.622C215.134 382.488 215.054 382.302 215.054 382.062C215.054 381.555 215.361 381.062 215.974 380.582C216.321 380.582 216.561 380.355 216.694 379.902C216.801 379.448 216.854 378.755 216.854 377.822C216.854 376.968 216.841 376.288 216.814 375.782C216.654 371.808 215.921 368.662 214.614 366.342C213.308 364.048 211.494 362.902 209.174 362.902C207.841 362.902 206.641 363.222 205.574 363.862C204.508 364.502 203.681 365.355 203.094 366.422C202.481 367.515 202.174 368.688 202.174 369.942C202.441 372.128 202.654 373.662 202.814 374.542C202.974 375.422 203.268 376.848 203.694 378.822C203.881 379.595 203.974 380.275 203.974 380.862C203.974 381.475 203.854 381.902 203.614 382.142C203.374 382.382 203.014 382.502 202.534 382.502C202.241 382.502 202.014 382.328 201.854 381.982C201.694 381.635 201.548 380.955 201.414 379.942C201.281 378.928 201.108 377.275 200.894 374.982C200.761 373.675 200.508 372.395 200.134 371.142C199.734 369.888 199.214 368.448 198.574 366.822C198.521 366.662 198.374 366.262 198.134 365.622C197.894 365.008 197.721 364.502 197.614 364.102C197.508 363.702 197.454 363.382 197.454 363.142C197.454 362.528 197.774 362.222 198.414 362.222C198.628 362.222 199.414 363.862 200.774 367.142C201.068 365.942 201.668 364.875 202.574 363.942C203.481 363.035 204.561 362.328 205.814 361.822C207.068 361.315 208.361 361.062 209.694 361.062Z" fill="black"/>
<path d="M173.429 356.892C178.411 357.951 182.214 359.045 184.836 360.175C182.763 373.393 181.722 381.432 181.713 384.293L182.945 384.268C183.599 384.271 184.229 384.255 184.837 384.221C185.438 384.212 186.093 384.147 186.8 384.025L186.557 385.363C186.462 385.807 185.894 386.108 184.851 386.268C183.803 386.455 182.578 386.508 181.178 386.428C179.745 386.369 178.494 386.226 177.425 385.999C176.251 385.749 174.952 385.255 173.528 384.516C172.078 383.771 170.894 382.865 169.976 381.798C169.052 380.756 168.709 379.675 168.948 378.553C169.219 377.275 169.956 376.246 171.158 375.465C172.328 374.705 173.74 374.283 175.394 374.198C173.182 373.319 171.193 372.16 169.426 370.722C167.655 369.309 166.327 367.732 165.443 365.99C164.554 364.274 164.289 362.569 164.65 360.873C165.065 358.917 166.124 357.656 167.825 357.091C169.527 356.526 171.395 356.459 173.429 356.892ZM173.973 359.338C172.042 358.928 170.511 358.82 169.379 359.016C168.242 359.238 167.52 360.066 167.215 361.5C166.894 363.013 167.081 364.375 167.778 365.587C168.443 366.819 169.328 367.852 170.432 368.686C171.504 369.541 172.871 370.486 174.532 371.521C175.861 372.321 176.839 372.979 177.466 373.494C178.061 374.029 178.308 374.532 178.209 375.001C178.137 375.34 177.912 375.565 177.534 375.676C177.156 375.786 176.5 375.919 175.568 376.075C174.311 376.217 173.309 376.441 172.563 376.745C171.785 377.071 171.307 377.651 171.129 378.485C170.869 379.711 171.413 380.808 172.761 381.777C174.104 382.771 175.701 383.465 177.553 383.858C178.074 383.969 178.712 384.05 179.464 384.101C179.717 379.575 180.032 375.784 180.409 372.729C180.78 369.7 181.332 366.205 182.065 362.244C181.778 361.801 180.91 361.331 179.462 360.832C178.014 360.333 176.184 359.835 173.973 359.338Z" fill="black"/>
<path d="M150.051 359.263C149.737 359.97 148.84 360.213 147.362 359.993C145.86 359.761 143.835 359.196 141.287 358.295C141.009 358.2 140.626 358.044 140.138 357.827C139.164 357.393 138.464 356.965 138.039 356.542C137.615 356.12 137.462 355.774 137.581 355.506C137.798 355.019 138.138 354.879 138.601 355.085C138.966 355.247 139.329 355.482 139.689 355.788C140.208 356.195 140.761 356.528 141.345 356.788C142.271 357.2 143.722 357.613 145.698 358.026C146.686 358.232 147.507 358.422 148.159 358.596C148.812 358.77 149.442 358.992 150.051 359.263Z" fill="black"/>
<path d="M121.458 335.187C120.676 337.124 119.79 339.002 118.799 340.82C117.792 342.66 115.98 345.562 113.362 349.528C113.174 349.787 112.923 349.95 112.61 350.019C112.275 350.072 111.988 350.013 111.751 349.84L111.46 349.629C111.869 348.838 112.624 347.64 113.725 346.034C113.851 345.861 114.252 345.263 114.93 344.239C115.592 343.237 116.151 342.242 116.605 341.253C113.93 339.673 111.582 338.708 109.56 338.36C107.517 337.996 106.002 338.494 105.015 339.853C103.776 341.558 103.52 343.498 104.247 345.674C104.973 347.849 106.857 350.042 109.899 352.253C111.172 353.177 112.423 353.724 113.653 353.892C113.851 353.937 114.06 353.875 114.282 353.706C114.488 353.559 114.745 353.318 115.055 352.982C115.38 352.625 115.646 352.373 115.852 352.226C116.057 352.079 116.247 352.068 116.419 352.194C116.613 352.335 116.641 352.569 116.502 352.896C116.326 353.23 115.853 353.925 115.085 354.982C114.647 355.586 113.892 355.763 112.821 355.513C111.751 355.262 110.568 354.667 109.274 353.726C105.498 350.983 103.125 348.352 102.153 345.833C101.181 343.315 101.589 340.825 103.376 338.366C104.332 337.05 105.66 336.334 107.36 336.217C109.059 336.101 110.821 336.375 112.645 337.041C114.453 337.728 116.047 338.574 117.428 339.577C117.573 339.287 117.702 339.018 117.816 338.771C117.929 338.524 118.03 338.317 118.118 338.15C118.882 336.464 119.554 335.221 120.134 334.423C120.479 333.948 120.818 333.618 121.151 333.432C121.463 333.229 121.781 333.313 122.107 333.681L121.458 335.187Z" fill="black"/>
<path d="M89.3678 297.59C89.9506 297.639 90.4115 297.852 90.7505 298.229C91.2501 298.784 91.5526 299.678 91.6579 300.91C91.7632 302.143 91.7994 304.156 91.7663 306.949C92.0022 307.131 92.3283 307.394 92.7446 307.737C93.1431 308.06 93.5505 308.393 93.9668 308.735L95.4061 309.915C95.5687 310.056 95.7927 310.285 96.0782 310.602C97.4343 312.108 98.3078 313.816 98.6987 315.724C99.0698 317.651 98.9612 319.543 98.3729 321.4C97.7847 323.258 96.7771 324.829 95.3503 326.113C93.9829 327.344 92.5034 328.192 90.9119 328.656C89.3203 329.121 87.8159 329.183 86.3986 328.845C84.9437 328.504 83.7434 327.809 82.7977 326.758C80.9776 324.737 79.7512 322.379 79.1183 319.683C78.4655 317.005 78.4115 314.434 78.956 311.971C79.4807 309.525 80.4961 307.623 82.0022 306.267C82.8544 305.5 83.9504 305.123 85.2903 305.137C86.6124 305.131 88.0614 305.405 89.6373 305.959C89.5973 304.56 89.4741 303.128 89.2676 301.663C89.0969 300.597 89.0085 299.761 89.0025 299.157C88.9964 298.552 89.1182 298.03 89.3678 297.59ZM94.3334 312.55C93.923 312.094 93.5195 311.686 93.123 311.325C92.7265 310.965 92.2289 310.551 91.6302 310.086C91.4661 311.777 91.2731 313.116 91.0514 314.106C90.7919 315.093 90.4541 315.774 90.038 316.148C89.7011 316.452 89.2997 316.544 88.8339 316.425C88.5305 316.088 88.4273 315.535 88.5243 314.766C88.6034 313.977 88.8113 312.893 89.1479 311.513C89.4965 310.267 89.6846 309.38 89.7122 308.852C88.3801 307.971 87.1342 307.424 85.9746 307.212C84.7972 306.98 83.8418 307.195 83.1086 307.855C81.8998 308.943 81.0557 310.457 80.5765 312.395C80.0972 314.334 80.1383 316.432 80.6998 318.69C81.2236 320.945 82.3509 323.034 84.0817 324.956C85.3664 326.383 86.9096 327.021 88.7113 326.87C90.4932 326.737 92.2066 325.93 93.8514 324.449C95.092 323.475 95.9381 322.283 96.3897 320.871C96.8037 319.458 96.8321 318.015 96.475 316.542C96.1 315.05 95.3862 313.719 94.3334 312.55Z" fill="black"/>
<path d="M75.4767 281.344C76.81 283.654 77.4241 285.624 77.3189 287.255C77.1906 288.9 76.0757 290.329 73.9741 291.542C62.1604 297.747 56.2259 300.188 56.1704 298.865C55.9001 298.344 56.5386 297.636 58.0859 296.743C59.0328 296.196 61.1238 295.205 64.3588 293.768C68.1091 292.157 70.8041 290.878 72.4438 289.931L73.4284 289.317C73.9364 289.023 74.3578 288.58 74.6926 287.986C75.014 287.37 75.0578 286.806 74.824 286.294L71.4929 279.164C71.3693 278.897 71.5384 278.63 72.0003 278.363C72.416 278.123 72.7647 278.061 73.0463 278.175C73.3147 278.266 73.635 278.528 74.0074 278.96L75.4767 281.344Z" fill="black"/>
<path d="M64.5865 255.963C65.5588 258.956 64.9069 261.523 62.6306 263.665C60.346 265.781 57.081 267.641 52.8355 269.245C52.4633 269.394 51.9221 269.583 51.212 269.814C49.7664 270.284 48.5928 270.469 47.6912 270.369C46.7561 270.253 46.1237 269.687 45.7941 268.672C45.7034 268.394 45.7094 268.153 45.8122 267.952C45.8895 267.758 46.0423 267.624 46.2706 267.55C46.7525 267.394 47.3164 267.533 47.9625 267.968C48.0696 268.298 48.3593 268.456 48.8317 268.443C49.2958 268.404 49.9717 268.24 50.8593 267.952C51.6709 267.688 52.3135 267.465 52.7871 267.284C56.5165 265.904 59.2826 264.234 61.0852 262.274C62.8626 260.323 63.3927 258.244 62.6758 256.037C62.2638 254.769 61.5886 253.727 60.6504 252.91C59.7121 252.093 58.645 251.571 57.4493 251.343C56.2199 251.097 55.0093 251.168 53.8173 251.555C51.82 252.485 50.4277 253.161 49.6402 253.586C48.8527 254.01 47.5865 254.73 45.8416 255.745C45.1638 256.162 44.5459 256.46 43.988 256.642C43.4046 256.831 42.9618 256.849 42.6594 256.695C42.3569 256.541 42.1316 256.236 41.9832 255.779C41.8926 255.5 41.9874 255.231 42.2677 254.972C42.5479 254.712 43.1493 254.363 44.0719 253.923C44.9944 253.483 46.5132 252.807 48.6284 251.896C49.8299 251.365 50.969 250.728 52.0456 249.986C53.114 249.218 54.3228 248.279 55.6721 247.167C55.8078 247.067 56.1429 246.804 56.6774 246.378C57.1866 245.96 57.6149 245.639 57.9623 245.414C58.3098 245.189 58.5976 245.039 58.8259 244.965C59.4092 244.776 59.7998 244.985 59.9975 245.594C60.0634 245.797 58.7468 247.052 56.0476 249.359C57.2795 249.267 58.4794 249.508 59.6472 250.082C60.7897 250.664 61.7955 251.473 62.6647 252.508C63.5338 253.543 64.1744 254.695 64.5865 255.963Z" fill="black"/>
<path d="M57.4417 220.163C57.9741 225.229 58.1081 229.183 57.8439 232.026C44.6323 234.139 36.6649 235.633 33.9416 236.509L34.3455 237.673C34.545 238.296 34.7549 238.891 34.9754 239.457C35.1693 240.027 35.4337 240.629 35.7686 241.264L34.4202 241.446C33.9694 241.494 33.5067 241.046 33.0323 240.104C32.5314 239.165 32.1024 238.016 31.7452 236.66C31.3588 235.279 31.1085 234.045 30.9942 232.958C30.8688 231.764 30.9374 230.376 31.2 228.794C31.4599 227.184 31.9556 225.778 32.6872 224.575C33.3923 223.375 34.315 222.715 35.4554 222.595C36.7549 222.458 37.9615 222.841 39.0752 223.743C40.1596 224.621 40.9976 225.833 41.5892 227.38C41.7417 225.004 42.2292 222.754 43.0516 220.63C43.8476 218.509 44.9373 216.758 46.3207 215.38C47.6776 214.003 49.218 213.225 50.9419 213.044C52.9309 212.835 54.4571 213.452 55.5205 214.895C56.5839 216.339 57.2243 218.095 57.4417 220.163ZM55.2829 221.436C55.0766 219.473 54.7056 217.984 54.1697 216.968C53.6074 215.954 52.5969 215.524 51.1383 215.678C49.6001 215.839 48.3626 216.439 47.4259 217.475C46.4598 218.489 45.7506 219.649 45.2981 220.957C44.8164 222.241 44.3401 223.833 43.8695 225.732C43.5189 227.244 43.1956 228.377 42.8995 229.132C42.5742 229.864 42.1729 230.255 41.6955 230.305C41.3507 230.341 41.0674 230.196 40.8455 229.871C40.6236 229.546 40.2943 228.964 39.8576 228.125C39.3343 226.973 38.8124 226.09 38.2919 225.474C37.7421 224.835 37.0428 224.56 36.1941 224.649C34.9477 224.78 34.0724 225.636 33.5682 227.217C33.0376 228.802 32.8712 230.535 33.0691 232.418C33.1249 232.948 33.2448 233.579 33.4289 234.311C37.8119 233.153 41.5144 232.281 44.5364 231.695C47.5319 231.112 51.0263 230.557 55.0198 230.03C55.3521 229.62 55.5316 228.649 55.5583 227.118C55.5851 225.587 55.4933 223.693 55.2829 221.436Z" fill="black"/>
<path d="M47.9619 198.662C47.1928 198.581 46.6846 197.804 46.4374 196.33C46.1929 194.83 46.1053 192.729 46.1747 190.028C46.1788 189.734 46.2087 189.321 46.2645 188.791C46.376 187.73 46.5671 186.932 46.8378 186.398C47.1085 185.863 47.3897 185.611 47.6814 185.642C48.2118 185.697 48.4506 185.977 48.3976 186.481C48.3558 186.879 48.2449 187.296 48.0649 187.733C47.8389 188.353 47.6924 188.981 47.6255 189.618C47.5196 190.625 47.5757 192.133 47.7937 194.14C47.9028 195.143 47.9755 195.982 48.0119 196.656C48.0483 197.331 48.0316 197.999 47.9619 198.662Z" fill="black"/>
<path d="M62.0239 164.028C59.9398 163.884 57.8802 163.621 55.8449 163.24C53.7843 162.851 50.4639 162.024 45.8836 160.761C45.5793 160.662 45.346 160.474 45.1836 160.197C45.0295 159.894 44.9978 159.604 45.0885 159.325L45.1997 158.982C46.0778 159.127 47.4508 159.475 49.3187 160.026C49.5216 160.092 50.2146 160.289 51.3977 160.617C52.5555 160.938 53.6745 161.161 54.7549 161.288C55.4318 158.255 55.6234 155.724 55.3297 153.694C55.0443 151.638 54.1027 150.351 52.5049 149.832C50.5013 149.181 48.5771 149.537 46.7322 150.9C44.8873 152.263 43.3839 154.733 42.222 158.309C41.7358 159.805 41.6027 161.164 41.8228 162.385C41.8412 162.587 41.9649 162.768 42.1938 162.926C42.3973 163.077 42.7064 163.247 43.1211 163.438C43.5611 163.637 43.8829 163.812 44.0864 163.962C44.2899 164.112 44.3587 164.289 44.2928 164.492C44.2187 164.72 44.0044 164.818 43.6499 164.787C43.2784 164.723 42.4713 164.489 41.2286 164.085C40.5184 163.854 40.117 163.191 40.0244 162.095C39.9318 161 40.1326 159.691 40.6271 158.169C42.0692 153.731 43.8379 150.661 45.9332 148.958C48.0285 147.256 50.5218 146.874 53.413 147.814C54.96 148.316 56.0516 149.358 56.6876 150.938C57.3237 152.519 57.6069 154.279 57.5373 156.219C57.4423 158.151 57.1311 159.929 56.6037 161.552C56.9246 161.6 57.22 161.64 57.4901 161.672C57.7602 161.703 57.9881 161.735 58.1739 161.768C60.0139 161.973 61.403 162.228 62.3414 162.533C62.8994 162.714 63.3185 162.935 63.5987 163.194C63.8872 163.428 63.9066 163.757 63.6568 164.18L62.0239 164.028Z" fill="black"/>
<path d="M87.8645 121.891C87.9976 122.46 87.9375 122.964 87.6842 123.403C87.3108 124.05 86.5542 124.614 85.4142 125.095C84.2742 125.576 82.3711 126.232 79.7047 127.064C79.6043 127.345 79.4553 127.736 79.2579 128.238C79.0739 128.717 78.8832 129.207 78.6858 129.709L78.0083 131.442C77.9247 131.64 77.7763 131.924 77.5629 132.294C76.5496 134.049 75.1957 135.407 73.5012 136.369C71.7836 137.317 69.9507 137.798 68.0025 137.813C66.0542 137.827 64.2487 137.355 62.5859 136.395C60.9924 135.475 59.7291 134.33 58.7958 132.959C57.8625 131.589 57.3379 130.178 57.222 128.725C57.0964 127.236 57.3868 125.88 58.0935 124.656C59.4535 122.3 61.3175 120.405 63.6856 118.97C66.0305 117.522 68.4588 116.676 70.9703 116.432C73.4588 116.176 75.5806 116.554 77.3358 117.567C78.3288 118.14 79.0259 119.066 79.4271 120.345C79.8415 121.6 80.0285 123.063 79.988 124.733C81.3065 124.263 82.6304 123.703 83.9597 123.054C84.9211 122.562 85.6883 122.22 86.2614 122.028C86.8345 121.835 87.3688 121.789 87.8645 121.891ZM75.1713 131.236C75.4779 130.705 75.7415 130.195 75.962 129.707C76.1825 129.218 76.4216 128.617 76.6795 127.904C75.0207 128.27 73.6867 128.501 72.6775 128.596C71.6585 128.654 70.9065 128.543 70.4215 128.263C70.0289 128.036 69.8171 127.683 69.7862 127.203C70.0129 126.811 70.5069 126.542 71.2683 126.396C72.043 126.228 73.1385 126.09 74.5546 125.984C75.8481 125.93 76.7499 125.835 77.2599 125.699C77.6868 124.159 77.8218 122.805 77.6649 121.637C77.5214 120.446 77.0224 119.603 76.1679 119.11C74.7592 118.297 73.0589 117.962 71.0671 118.105C69.0753 118.248 67.0926 118.936 65.1191 120.167C63.1358 121.362 61.4975 123.08 60.2041 125.32C59.2441 126.983 59.1143 128.648 59.8147 130.314C60.4921 131.968 61.7891 133.348 63.7059 134.455C65.0151 135.334 66.4107 135.77 67.8925 135.763C69.3646 135.72 70.7457 135.301 72.0359 134.507C73.3395 133.689 74.3846 132.599 75.1713 131.236Z" fill="black"/>
<path d="M99.0223 103.659C97.238 105.641 95.5539 106.834 93.9701 107.238C92.3665 107.624 90.663 107.005 88.8596 105.382C79.3079 96.0635 75.1525 91.1736 76.3934 90.7121C76.8058 90.2939 77.6758 90.6826 79.0036 91.8781C79.8161 92.6097 81.4054 94.2919 83.7714 96.9247C86.4624 99.9936 88.5115 102.162 89.9185 103.428L90.8073 104.175C91.2433 104.567 91.7952 104.831 92.4632 104.966C93.149 105.081 93.699 104.949 94.1134 104.568L99.8647 99.1968C100.081 98.9967 100.387 99.075 100.783 99.4319C101.14 99.7531 101.308 100.065 101.286 100.369C101.282 100.652 101.132 101.037 100.836 101.525L99.0223 103.659Z" fill="black"/>
<path d="M119.796 85.4589C117.25 87.3085 114.607 87.4817 111.867 85.9786C109.149 84.4598 106.371 81.9294 103.534 78.3872C103.277 78.0793 102.929 77.6233 102.49 77.0192C101.597 75.7895 101.058 74.7305 100.874 73.8423C100.696 72.9168 101.039 72.1406 101.902 71.5136C102.139 71.3412 102.369 71.2727 102.593 71.3081C102.801 71.3219 102.975 71.4259 103.116 71.6201C103.414 72.03 103.456 72.6094 103.242 73.3582C102.961 73.562 102.9 73.8864 103.059 74.3315C103.239 74.761 103.604 75.3533 104.152 76.1083C104.654 76.7987 105.064 77.341 105.384 77.7352C107.849 80.8557 110.291 82.9703 112.712 84.0792C115.117 85.1665 117.258 85.0283 119.135 83.6647C120.214 82.881 120.997 81.9167 121.483 80.772C121.97 79.6273 122.137 78.451 121.985 77.2432C121.839 75.9982 121.397 74.8687 120.66 73.8547C119.159 72.2424 118.085 71.1273 117.439 70.5094C116.792 69.8915 115.716 68.9097 114.211 67.5641C113.605 67.0481 113.13 66.5529 112.785 66.0783C112.425 65.5821 112.271 65.1663 112.324 64.8311C112.377 64.4959 112.598 64.1872 112.986 63.9051C113.224 63.7326 113.509 63.7396 113.842 63.926C114.175 64.1125 114.694 64.5764 115.397 65.3178C116.101 66.0592 117.213 67.2949 118.733 69.0249C119.609 70.0036 120.567 70.8903 121.605 71.6848C122.666 72.4637 123.933 73.323 125.407 74.2628C125.544 74.3609 125.898 74.5983 126.468 74.975C127.023 75.3301 127.461 75.6382 127.782 75.8991C128.103 76.16 128.335 76.3875 128.476 76.5817C128.836 77.0779 128.758 77.5141 128.24 77.8902C128.067 78.0156 126.467 77.1512 123.439 75.2971C123.907 76.4403 124.048 77.6559 123.863 78.9439C123.663 80.2104 123.204 81.4169 122.488 82.5635C121.772 83.7101 120.875 84.6752 119.796 85.4589Z" fill="black"/>
<path d="M151.636 67.601C146.983 69.6726 143.264 71.0221 140.478 71.6494C134.386 59.7373 130.503 52.6216 128.828 50.3022L127.846 51.0461C127.315 51.4282 126.815 51.8117 126.344 52.1965C125.862 52.5569 125.371 52.9945 124.87 53.5093L124.281 52.2831C124.096 51.869 124.379 51.2907 125.128 50.5484C125.867 49.7816 126.826 49.0188 128.006 48.2599C129.2 47.4658 130.296 46.8464 131.295 46.4017C132.391 45.9136 133.733 45.5499 135.319 45.3106C136.93 45.0605 138.42 45.0974 139.791 45.4214C141.15 45.7211 142.063 46.3947 142.529 47.4422C143.061 48.6359 143.07 49.9017 142.556 51.2396C142.056 52.5422 141.162 53.7139 139.874 54.7544C142.18 54.1654 144.471 53.9337 146.745 54.0595C149.009 54.1609 151.01 54.6564 152.749 55.5461C154.477 56.4114 155.694 57.6358 156.399 59.2192C157.212 61.0463 157.097 62.6886 156.053 64.1459C155.008 65.6033 153.536 66.755 151.636 67.601ZM149.759 65.9411C151.561 65.1385 152.863 64.3254 153.664 63.5017C154.454 62.6537 154.551 61.5598 153.954 60.2199C153.325 58.807 152.373 57.8153 151.097 57.2448C149.835 56.6391 148.512 56.3232 147.129 56.2971C145.758 56.2357 144.097 56.2747 142.145 56.414C140.599 56.5477 139.422 56.5905 138.612 56.5423C137.816 56.4588 137.32 56.1979 137.125 55.7594C136.984 55.4427 137.034 55.1286 137.275 54.817C137.515 54.5055 137.967 54.0124 138.63 53.3378C139.564 52.4843 140.243 51.7149 140.668 51.0296C141.106 50.3091 141.151 49.5591 140.804 48.7795C140.294 47.6345 139.21 47.0666 137.55 47.0759C135.879 47.0607 134.179 47.4382 132.449 48.2083C131.962 48.4252 131.399 48.7342 130.761 49.1354C133.216 52.946 135.189 56.1979 136.68 58.891C138.16 61.5597 139.768 64.7116 141.503 68.3468C141.996 68.536 142.975 68.4068 144.439 67.9591C145.904 67.5113 147.677 66.8387 149.759 65.9411Z" fill="black"/>
<path d="M169.155 51.9411C168.994 51.1846 169.577 50.4611 170.902 49.7704C172.254 49.0742 174.224 48.3418 176.815 47.5732C177.096 47.4861 177.497 47.3871 178.019 47.2762C179.062 47.0545 179.88 46.9897 180.472 47.0819C181.064 47.1742 181.391 47.3638 181.452 47.6507C181.563 48.1724 181.37 48.4859 180.875 48.5912C180.484 48.6744 180.052 48.6979 179.581 48.6617C178.922 48.6383 178.279 48.6931 177.653 48.8262C176.662 49.0368 175.246 49.556 173.404 50.3836C172.484 50.7974 171.708 51.1258 171.078 51.3687C170.448 51.6117 169.807 51.8025 169.155 51.9411Z" fill="black"/>
</svg>
