<svg version="1.0" xmlns="http://www.w3.org/2000/svg"
 width="379.000000pt" height="102.000000pt" viewBox="0 0 379.000000 102.000000"
 preserveAspectRatio="xMidYMid meet" >

<g transform="translate(0.000000,102.000000) scale(0.100000,-0.100000)"
fill="#FFFFFF" stroke="none">
<path d="M790 878 c-16 -45 -216 -617 -246 -701 l-23 -68 61 3 61 3 64 185
c36 102 98 281 138 398 l74 212 -58 0 c-57 0 -59 -1 -71 -32z"/>
<path d="M1710 893 c-14 -2 -35 -6 -47 -8 l-23 -5 0 -310 0 -310 60 0 60 0 2
167 3 168 34 3 c90 9 101 -13 101 -198 l0 -140 61 0 61 0 -4 168 c-3 145 -6
171 -23 200 -30 51 -83 74 -163 71 l-67 -3 -3 102 c-2 73 -6 102 -15 101 -7
-1 -23 -3 -37 -6z"/>
<path d="M2165 811 l-30 -6 1 -220 c0 -186 3 -225 17 -252 32 -60 104 -89 192
-78 71 8 77 14 69 64 l-7 42 -52 -6 c-45 -6 -56 -4 -73 13 -24 24 -35 83 -30
167 l3 60 73 3 72 3 0 49 0 50 -75 0 -75 0 0 60 c0 59 0 60 -27 59 -16 -1 -41
-4 -58 -8z"/>
<path d="M277 632 l-178 -75 3 -50 c3 -48 4 -50 48 -67 25 -10 105 -43 178
-74 l133 -55 9 25 c28 72 33 67 -104 119 -69 26 -126 51 -126 54 0 3 57 28
126 55 118 45 125 49 120 72 -8 30 -25 74 -28 73 -2 -1 -83 -35 -181 -77z"/>
<path d="M966 662 c-9 -25 -14 -47 -12 -49 2 -2 57 -24 122 -49 66 -25 122
-49 126 -52 4 -4 -52 -29 -123 -56 -141 -53 -135 -47 -105 -118 l11 -27 175
74 175 73 3 50 3 50 -73 30 c-40 17 -121 51 -180 75 l-107 45 -15 -46z"/>
<path d="M2553 688 l-43 -9 0 -210 0 -209 60 0 60 0 0 170 0 170 44 0 c70 0
76 -15 76 -192 l0 -148 60 0 60 0 0 164 c0 140 2 165 16 170 32 12 71 6 90
-15 17 -18 19 -41 22 -170 l4 -149 60 0 60 0 -4 163 c-4 184 -16 225 -78 259
-45 24 -132 23 -185 -1 -39 -17 -41 -17 -70 1 -34 20 -155 24 -232 6z"/>
<path d="M3206 678 c5 -7 36 -52 71 -101 l62 -88 -63 -92 c-35 -51 -69 -102
-75 -114 -11 -23 -11 -23 46 -23 l58 0 49 78 48 77 20 -25 c11 -14 34 -49 50
-77 l30 -53 59 0 c32 0 59 4 59 9 0 11 -76 124 -121 182 l-29 36 54 75 c29 41
61 86 71 101 l17 27 -58 0 -59 0 -44 -67 -43 -66 -41 66 -42 67 -63 0 c-47 0
-61 -3 -56 -12z"/>
</g>
</svg>
